<?xml version="1.0" standalone="no"?>
<!DOCTYPE svg PUBLIC "-//W3C//DTD SVG 20010904//EN"
 "http://www.w3.org/TR/2001/REC-SVG-20010904/DTD/svg10.dtd">
<svg version="1.0" xmlns="http://www.w3.org/2000/svg"
 width="347.000000pt" height="239.000000pt" viewBox="0 0 347.000000 239.000000"
 preserveAspectRatio="xMidYMid meet">

<g transform="translate(0.000000,239.000000) scale(0.100000,-0.100000)"
fill="#000000" stroke="none">
<path d="M1638 1637 c-108 -31 -168 -101 -168 -198 0 -78 23 -112 146 -222 63
-55 116 -109 120 -120 4 -13 -1 -27 -15 -41 -19 -18 -33 -21 -99 -20 -53 1
-94 8 -131 22 -30 12 -56 21 -57 19 -3 -3 17 -191 21 -195 11 -11 172 -23 253
-19 77 3 102 9 150 33 74 38 114 93 120 167 7 90 -9 112 -201 280 -37 32 -67
66 -67 76 0 63 133 77 252 27 15 -7 16 -1 12 66 -7 99 -11 115 -31 123 -37 14
-257 15 -305 2z"/>
<path d="M106 1578 c-3 -35 -8 -97 -11 -138 -10 -150 -46 -535 -51 -552 -5
-16 4 -18 95 -18 56 0 101 3 101 8 0 4 7 108 15 232 8 124 15 239 15 255 1 56
17 4 69 -225 28 -124 53 -235 56 -247 5 -22 10 -23 110 -23 l104 0 86 262 c47
145 89 265 92 268 6 5 -4 -327 -13 -452 l-6 -78 104 0 105 0 7 308 c3 169 9
342 13 385 l6 77 -159 0 -159 0 -57 -163 c-31 -89 -67 -196 -79 -237 l-23 -75
-18 90 c-9 50 -31 144 -47 210 -17 66 -33 132 -36 148 l-5 27 -154 0 -154 0
-6 -62z"/>
<path d="M2298 1445 c-142 -39 -228 -143 -231 -279 -3 -95 18 -153 78 -212 68
-68 128 -89 255 -89 127 0 187 21 255 89 62 61 85 122 85 215 -1 108 -41 186
-121 237 -80 50 -219 67 -321 39z m169 -165 c77 -47 63 -207 -22 -247 -50 -24
-102 -9 -133 37 -20 29 -23 44 -20 93 8 112 91 168 175 117z"/>
<path d="M3027 1446 c-180 -50 -268 -278 -177 -456 23 -44 81 -92 138 -112 41
-14 273 -18 333 -5 36 7 36 8 48 77 17 106 22 100 -66 79 -43 -10 -94 -19
-113 -19 -88 0 -150 42 -150 101 l0 29 194 0 194 0 6 34 c20 106 -41 220 -139
262 -53 22 -205 28 -268 10z m167 -138 c14 -13 28 -35 32 -50 l6 -28 -96 0
c-53 0 -96 2 -96 5 0 4 7 19 15 35 31 61 94 78 139 38z"/>
<path d="M1120 970 l0 -100 105 0 105 0 0 84 c0 46 3 91 6 100 5 14 -8 16
-105 16 l-111 0 0 -100z"/>
</g>
</svg>
